<?xml version="1.0" encoding="UTF-8"?>
<svg id="Camada_1" data-name="Camada 1" xmlns="http://www.w3.org/2000/svg" viewBox="0 0 753.68 193.54">
  <defs>
    <style>
      .cls-1 {
        font-family: AvenirNextLTPro-Regular, 'Avenir Next LT Pro';
        font-size: 55.16px;
        letter-spacing: 1.5em;
      }

      .cls-1, .cls-2 {
        fill: #fff;
      }
    </style>
  </defs>
  <g>
    <g>
      <path d="M71.32,2.84h-19.74L0,107.96h23.03l11.07-23.33,7.59-16.9h.03l18.54-39.18h.15l18.09,39.18,7.47,16.75,10.92,23.47h23.77L71.32,2.84Z"/>
      <path d="M449.38,2.84h-19.74l-51.59,105.11h23.03l11.07-23.33,7.59-16.9h.03l18.54-39.18h.15l18.09,39.18,7.47,16.75,10.92,23.47h23.77L449.38,2.84Z"/>
      <path d="M704.06,2.84h-19.74l-51.59,105.11h23.03l11.07-23.33,7.59-16.9h.03l18.54-39.18h.15l18.09,39.18,7.47,16.75,10.92,23.47h23.77L704.06,2.84Z"/>
      <path d="M211.9,107.96c-4.59-5.78-9.02-11.31-13.31-16.6-1.79-2.19-3.66-4.49-5.61-6.88-1.94-2.39-3.86-4.68-5.76-6.88-1.89-2.19-3.66-4.26-5.31-6.21-1.64-1.94-3.07-3.61-4.26-5.01h-20.34l-.3,41.57h-23.92V3.14h61.45c6.28,0,12.04.75,17.27,2.24,5.23,1.5,9.74,3.59,13.53,6.28,3.79,2.69,6.73,5.93,8.82,9.72,2.09,3.79,3.14,7.92,3.14,12.41,0,4.19-.92,8.1-2.77,11.74-1.85,3.64-4.34,6.85-7.48,9.64-3.14,2.79-6.83,5.08-11.06,6.88-4.24,1.79-8.7,2.94-13.38,3.44l1.79.6,31.55,40.07v1.79h-24.07ZM215.04,34.16c0-3.81-1.55-7.01-4.64-9.62-3.09-2.61-8.07-3.91-14.95-3.91h-38.13v27.66l36.33.3c6.78,0,12.04-1.43,15.77-4.28,3.74-2.85,5.61-6.24,5.61-10.15Z"/>
      <path d="M311.65,110.65c-6.78,0-13.81-1.17-21.08-3.51-7.28-2.34-13.96-5.85-20.04-10.54-6.08-4.68-11.06-10.47-14.95-17.34-3.89-6.88-5.83-14.9-5.83-24.07,0-8.47,1.82-16.12,5.46-22.95,3.64-6.83,8.37-12.63,14.2-17.42s12.38-8.45,19.66-10.99c7.28-2.54,14.6-3.81,21.98-3.81,5.78,0,11.21.5,16.3,1.5,5.08,1,9.79,2.34,14.13,4.04,4.34,1.7,8.35,3.64,12.04,5.83,3.69,2.19,7.03,4.54,10.02,7.03l-10.47,15.7c-2.59-1.99-5.31-3.91-8.15-5.76-2.84-1.84-5.96-3.49-9.35-4.93-3.39-1.44-7.03-2.62-10.92-3.51-3.89-.9-8.13-1.35-12.71-1.35-4.89,0-9.62.85-14.2,2.54-4.59,1.7-8.67,4.14-12.26,7.33-3.59,3.19-6.46,7.08-8.6,11.66-2.14,4.59-3.21,9.77-3.21,15.55s1.07,10.67,3.21,15.25c2.14,4.59,4.98,8.47,8.52,11.66,3.54,3.19,7.6,5.66,12.19,7.4,4.58,1.75,9.32,2.62,14.2,2.62,4.58,0,8.87-.45,12.86-1.35,3.99-.9,7.7-2.09,11.14-3.59,3.44-1.5,6.65-3.19,9.64-5.08,2.99-1.89,5.78-3.84,8.37-5.83l11.81,13.61c-1.7,2-4.16,4.16-7.4,6.5-3.24,2.34-7.15,4.54-11.74,6.58-4.59,2.04-9.82,3.76-15.7,5.16-5.88,1.39-12.26,2.09-19.14,2.09Z"/>
      <path d="M609.69,107.96l-74.76-66.09v66.09h-23.77V3.14h14.05l71.62,62.95V3.14h23.48v104.82h-10.62Z"/>
    </g>
    <g>
      <path class="cls-2" d="M71.32,2.84h-19.74L0,107.96h23.03l11.07-23.33,7.59-16.9h.03l18.54-39.18h.15l18.09,39.18,7.47,16.75,10.92,23.47h23.77L71.32,2.84Z"/>
      <path class="cls-2" d="M449.38,2.84h-19.74l-51.59,105.11h23.03l11.07-23.33,7.59-16.9h.03l18.54-39.18h.15l18.09,39.18,7.47,16.75,10.92,23.47h23.77L449.38,2.84Z"/>
      <path class="cls-2" d="M704.06,2.84h-19.74l-51.59,105.11h23.03l11.07-23.33,7.59-16.9h.03l18.54-39.18h.15l18.09,39.18,7.47,16.75,10.92,23.47h23.77L704.06,2.84Z"/>
      <path class="cls-2" d="M211.9,107.96c-4.59-5.78-9.02-11.31-13.31-16.6-1.79-2.19-3.66-4.49-5.61-6.88-1.94-2.39-3.86-4.68-5.76-6.88-1.89-2.19-3.66-4.26-5.31-6.21-1.64-1.94-3.07-3.61-4.26-5.01h-20.34l-.3,41.57h-23.92V3.14h61.45c6.28,0,12.04.75,17.27,2.24,5.23,1.5,9.74,3.59,13.53,6.28,3.79,2.69,6.73,5.93,8.82,9.72,2.09,3.79,3.14,7.92,3.14,12.41,0,4.19-.92,8.1-2.77,11.74-1.85,3.64-4.34,6.85-7.48,9.64-3.14,2.79-6.83,5.08-11.06,6.88-4.24,1.79-8.7,2.94-13.38,3.44l1.79.6,31.55,40.07v1.79h-24.07ZM215.04,34.16c0-3.81-1.55-7.01-4.64-9.62-3.09-2.61-8.07-3.91-14.95-3.91h-38.13v27.66l36.33.3c6.78,0,12.04-1.43,15.77-4.28,3.74-2.85,5.61-6.24,5.61-10.15Z"/>
      <path class="cls-2" d="M311.65,110.65c-6.78,0-13.81-1.17-21.08-3.51-7.28-2.34-13.96-5.85-20.04-10.54-6.08-4.68-11.06-10.47-14.95-17.34-3.89-6.88-5.83-14.9-5.83-24.07,0-8.47,1.82-16.12,5.46-22.95,3.64-6.83,8.37-12.63,14.2-17.42s12.38-8.45,19.66-10.99c7.28-2.54,14.6-3.81,21.98-3.81,5.78,0,11.21.5,16.3,1.5,5.08,1,9.79,2.34,14.13,4.04,4.34,1.7,8.35,3.64,12.04,5.83,3.69,2.19,7.03,4.54,10.02,7.03l-10.47,15.7c-2.59-1.99-5.31-3.91-8.15-5.76-2.84-1.84-5.96-3.49-9.35-4.93-3.39-1.44-7.03-2.62-10.92-3.51-3.89-.9-8.13-1.35-12.71-1.35-4.89,0-9.62.85-14.2,2.54-4.59,1.7-8.67,4.14-12.26,7.33-3.59,3.19-6.46,7.08-8.6,11.66-2.14,4.59-3.21,9.77-3.21,15.55s1.07,10.67,3.21,15.25c2.14,4.59,4.98,8.47,8.52,11.66,3.54,3.19,7.6,5.66,12.19,7.4,4.58,1.75,9.32,2.62,14.2,2.62,4.58,0,8.87-.45,12.86-1.35,3.99-.9,7.7-2.09,11.14-3.59,3.44-1.5,6.65-3.19,9.64-5.08,2.99-1.89,5.78-3.84,8.37-5.83l11.81,13.61c-1.7,2-4.16,4.16-7.4,6.5-3.24,2.34-7.15,4.54-11.74,6.58-4.59,2.04-9.82,3.76-15.7,5.16-5.88,1.39-12.26,2.09-19.14,2.09Z"/>
      <path class="cls-2" d="M609.69,107.96l-74.76-66.09v66.09h-23.77V3.14h14.05l71.62,62.95V3.14h23.48v104.82h-10.62Z"/>
    </g>
  </g>
  <text class="cls-1" transform="translate(.28 180.3)"><tspan x="0" y="0">SEGUROS</tspan></text>
</svg>