<?xml version="1.0" encoding="UTF-8"?>
<svg id="Camada_1" data-name="Camada 1" xmlns="http://www.w3.org/2000/svg" viewBox="0 0 822.4 344">
  <defs>
    <style>
      .cls-1 {
        fill: #f2f2f2;
      }
    </style>
  </defs>
  <g>
    <path class="cls-1" d="M640.56,29.87c.98.86-4.61,7.9-5.61,9.07-13.6,16.03-28.74,31.06-42.67,46.84-9.64,10.91-19.25,22.01-28.41,33.22l23.55,68.9h-48.95l-8.33-28.55-2.83-.81-46.87,55.94h-46.85l22.38-27.97h-37.76c-1.02-3.45-2.21-8.61-2.3-14.94-.07-4.76.53-6.81.97-12.27.86-10.71,1.18-16.58-.75-20.36-3.83-7.53-28.39-2.85-36.26-4.26l-12.71,51.82h-38.46l29.47-145.34c23.92.99,49.44-1.76,73.19.03,6.59.49,15.85,2.01,21.82,4.75,28.48,13.11,24.75,62.72-4.21,73.45,13.7,20.45.35,43.84,8.4,65.71l59.62-66.41-21.87-65.05h47.55c1.16,3.85,2.31,7.71,3.46,11.59,1.15,3.88,2.29,7.75,3.42,11.62.23.79.69,1.87,1.62,2.83.19.2.39.37.58.53l41.97-50.34h46.85ZM386.03,102.59h28.67c1.61,0,10.01-3.66,11.81-4.97,5.6-4.09,8.38-13.28,3.54-18.77-1.15-1.3-8.56-4.23-9.76-4.23h-28.67l-5.59,27.97Z"/>
    <path class="cls-1" d="M346.3,41.06l-.86,3.38-8.52,35.63-66.93.19-4.24,22.33h57.34l-6.9,31.56-56.13,1.21-11.09,51.14h-40.56l29.63-141.69c.16-.79.32-1.58.48-2.37.21-.82.23-.93.33-1.38h107.45Z"/>
  </g>
  <rect class="cls-1" x="629.37" y="257.83" width="170.62" height="25.17"/>
  <polygon class="cls-1" points="193.03 257.83 193.03 280.9 190.93 283 22.41 283 22.41 257.83 193.03 257.83"/>
  <g>
    <path class="cls-1" d="M245.6,249.12c-.42-3.81-1.16-6.47-2.22-8-1.06-1.52-2.77-2.28-5.14-2.28-2.2,0-3.94.76-5.2,2.28-1.27,1.52-1.9,3.55-1.9,6.08,0,1.44.17,2.77.51,3.99.34,1.23.93,2.51,1.78,3.87.85,1.35,1.99,2.79,3.43,4.31,1.44,1.52,3.3,3.34,5.59,5.45,3.3,3.04,6.01,5.7,8.13,7.98,2.11,2.28,3.79,4.46,5.01,6.53,1.23,2.07,2.07,4.14,2.54,6.21.46,2.07.7,4.37.7,6.91,0,3.21-.49,6.15-1.46,8.81-.97,2.66-2.35,4.95-4.13,6.85-1.78,1.9-3.89,3.38-6.35,4.44-2.46,1.05-5.16,1.58-8.13,1.58-3.13,0-5.97-.56-8.51-1.67-2.54-1.11-4.72-2.67-6.54-4.68-1.82-2.01-3.26-4.42-4.32-7.22-1.06-2.8-1.63-5.94-1.71-9.41l12.06-2.16c.34,8.8,3.34,13.2,9.01,13.2,2.37,0,4.25-.84,5.65-2.53,1.4-1.69,2.09-3.93,2.09-6.72,0-3.13-1.1-6.17-3.3-9.13-.51-.68-.97-1.27-1.4-1.78-.42-.51-.97-1.1-1.65-1.77-.68-.67-1.55-1.52-2.6-2.54-1.06-1.01-2.48-2.32-4.25-3.93-2.71-2.45-4.97-4.75-6.79-6.91-1.82-2.15-3.3-4.24-4.44-6.27-1.14-2.03-1.97-4.08-2.48-6.15-.51-2.07-.76-4.29-.76-6.66,0-6.34,1.8-11.41,5.4-15.21,3.6-3.8,8.44-5.7,14.54-5.7,11.26,0,17.65,6.81,19.17,20.44l-12.31,1.78Z"/>
    <path class="cls-1" d="M298.28,312.86l-18.41-52.31v52.31h-11.81v-84.68h12.82l17.39,50.28v-50.28h11.81v84.68h-11.81Z"/>
    <path class="cls-1" d="M356.56,240.11h-21.84v22.85h15.74v11.93h-15.74v26.03h21.84v11.93h-34.66v-84.68h34.66v11.94Z"/>
    <path class="cls-1" d="M379.79,294.2l-2.92,18.66h-12.57l13.84-84.68h16.5l14.73,84.68h-13.08l-2.92-18.66h-13.58ZM386.39,248.49l-4.82,33.77h9.9l-5.08-33.77Z"/>
    <path class="cls-1" d="M431.33,228.18v33.9l14.98-33.9h13.33l-14.6,29.45,16.5,55.23h-13.58l-10.79-39.36-5.84,11.68v27.68h-12.82v-84.68h12.82Z"/>
    <path class="cls-1" d="M504.33,240.11h-21.84v22.85h15.74v11.93h-15.74v26.03h21.84v11.93h-34.66v-84.68h34.66v11.94Z"/>
    <path class="cls-1" d="M527.19,312.86h-12.82v-84.68h17.77c7.36,0,12.74,1.97,16.12,5.9,3.38,3.94,5.08,10.14,5.08,18.6,0,5.5-.64,9.86-1.92,13.08-1.28,3.22-3.51,5.97-6.67,8.25l9.87,38.85h-13.58l-7.85-35.42h-5.98v35.42ZM531.17,265.5c2.32,0,4.03-.23,5.11-.69,1.08-.46,1.95-1.4,2.62-2.83,1.08-2.35,1.62-5.41,1.62-9.18s-.54-6.83-1.62-9.18c-.67-1.42-1.54-2.37-2.62-2.83-1.08-.46-2.78-.69-5.11-.69h-3.99v25.39h3.99Z"/>
    <path class="cls-1" d="M589.39,249.12c-.42-3.81-1.16-6.47-2.22-8-1.06-1.52-2.77-2.28-5.14-2.28-2.2,0-3.94.76-5.21,2.28-1.27,1.52-1.9,3.55-1.9,6.08,0,1.44.17,2.77.51,3.99.34,1.23.93,2.51,1.78,3.87.85,1.35,1.99,2.79,3.43,4.31,1.44,1.52,3.3,3.34,5.59,5.45,3.3,3.04,6.01,5.7,8.13,7.98,2.11,2.28,3.79,4.46,5.01,6.53,1.23,2.07,2.07,4.14,2.54,6.21.46,2.07.7,4.37.7,6.91,0,3.21-.49,6.15-1.46,8.81-.97,2.66-2.35,4.95-4.13,6.85-1.78,1.9-3.89,3.38-6.35,4.44-2.46,1.05-5.16,1.58-8.12,1.58-3.13,0-5.97-.56-8.51-1.67s-4.72-2.67-6.54-4.68c-1.82-2.01-3.26-4.42-4.32-7.22-1.06-2.8-1.63-5.94-1.71-9.41l12.06-2.16c.34,8.8,3.34,13.2,9.02,13.2,2.37,0,4.25-.84,5.65-2.53,1.4-1.69,2.1-3.93,2.1-6.72,0-3.13-1.1-6.17-3.3-9.13-.51-.68-.97-1.27-1.4-1.78-.42-.51-.98-1.1-1.65-1.77-.68-.67-1.54-1.52-2.6-2.54-1.06-1.01-2.47-2.32-4.25-3.93-2.71-2.45-4.97-4.75-6.79-6.91-1.82-2.15-3.3-4.24-4.44-6.27-1.14-2.03-1.97-4.08-2.48-6.15-.51-2.07-.76-4.29-.76-6.66,0-6.34,1.8-11.41,5.4-15.21,3.6-3.8,8.44-5.7,14.54-5.7,11.25,0,17.65,6.81,19.17,20.44l-12.32,1.78Z"/>
  </g>
</svg>