<?xml version="1.0" encoding="UTF-8"?>
<svg id="Camada_1" xmlns="http://www.w3.org/2000/svg" version="1.1" viewBox="0 0 793 214" fill="white">
  <!-- Generator: Adobe Illustrator 30.2.1, SVG Export Plug-In . SVG Version: 2.1.1 Build 1)  -->
  <path d="M1.7,213.9c-1,0-1.7-.6-1.7-1.7s.6-1.7,1.7-1.7h2.9c2.5,0,3.7-1.1,3.7-3.7V32.3c0-2.5-1.1-3.7-3.7-3.7H1.7c-1,0-1.7-.6-1.7-1.7s.1-1.4,1.7-1.4h22.9c.8,0,1.4.5,1.4,1.4,0,1.6-1.1,1.7-1.4,1.7h-3.2c-2.5,0-3.7,1.1-3.7,3.7v103.9L106,31.4c1.4-1.7,1.4-2.3,1.3-2.5h0s-.2-.2-1.1-.2h-2.9c-1,0-1.7-.6-1.7-1.7s.1-1.4,1.7-1.4h16.6c1.6,0,1.7,1.1,1.7,1.4,0,1-.6,1.7-1.7,1.7h-2.9c-1.1,0-2.6.5-4.3,1.4-1.7,1-3.2,2-4.4,3.2L33.6,122.4c4.1-1.9,8.6-2.9,13.3-2.9s1.6,0,2.5,0c6.7.5,12.7,2.9,18,7.4,3.2,2.7,6.1,6.2,8.4,10.6l29.3,58.1c2.1,4.3,5.2,7.9,9.2,10.6,4.1,2.7,8.6,4.1,13.4,4.3h0c.3,0,1.4.1,1.4,1.7s-.5,1.4-1.4,1.4c-7.6-.2-14.7-2.3-21-6.4-6.4-4-11.3-9.5-14.7-16.1l-26.7-53.1c-.7-1.4-1.6-2.8-2.6-4.3-1-1.4-2.3-2.8-3.7-4-4.4-3.8-9.7-5.7-15.6-5.7h-.8c-6.2.2-11.6,2.5-16.1,6.8l-1.1,1.1c0,0-.3.3-.7,1h0c0,0-7,8.4-7,8.4v65.6c0,2.5,1.1,3.7,3.7,3.7h3.2c.3,0,1.4.1,1.4,1.7s-1.1,1.7-1.4,1.7H1.7Z"/>
  <path d="M127.8,211.2c.5,0,.8.4.8,1.1s-.2.8-.8.8c-7.4-.2-14.3-2.3-20.7-6.2-6.3-4-11.2-9.3-14.5-15.9l-26.7-53.1c-.7-1.4-1.6-2.9-2.6-4.4-1.1-1.5-2.3-2.9-3.7-4.1-4.8-4.1-10.4-6.1-16.8-5.9s-11.9,2.5-16.5,6.9c-.2.2-.5.5-1.1,1.1-.2.2-.4.5-.8,1.1l-7.2,8.5v65.9c0,2.8,1.4,4.3,4.3,4.3h3.2c.5,0,.8.4.8,1.1s-.2,1.1-.8,1.1H1.7c-.7,0-1.1-.4-1.1-1.1s.4-1.1,1.1-1.1h2.9c2.8,0,4.3-1.4,4.3-4.3V32.3c0-2.8-1.4-4.3-4.3-4.3H1.7c-.7,0-1.1-.4-1.1-1.1s.4-.8,1.1-.8h22.9c.5,0,.8.2.8.8s-.2,1.1-.8,1.1h-3.2c-2.8,0-4.3,1.4-4.3,4.3v105.6L106.5,31.8c1.3-1.4,1.7-2.5,1.3-3.2-.2-.4-.7-.5-1.6-.5h-2.9c-.7,0-1.1-.4-1.1-1.1s.4-.8,1.1-.8h16.6c.7,0,1.1.2,1.1.8s-.4,1.1-1.1,1.1h-2.9c-1.3,0-2.8.5-4.6,1.4s-3.3,2.1-4.5,3.3L31.3,124.3c5.5-3.2,11.5-4.6,18.1-4.1s12.4,2.9,17.6,7.3c3.2,2.6,5.9,6.1,8.3,10.4l29.3,58.1c2.2,4.4,5.3,8.1,9.5,10.8,4.1,2.8,8.7,4.3,13.7,4.4h0Z"/>
  <path d="M245.3,213.9c-1,0-1.7-.6-1.7-1.7s.6-1.7,1.7-1.7h2.9c.9,0,1.5-.3,1.9-.8h0c0,0,0-.1,0-.1.5-.5.7-1.3.4-2.3l-16-52c-2.8-8.9-8-16.1-15.4-21.6-7.4-5.4-15.9-8.2-25.1-8.2s-15.9,2.2-22.7,6.4l-23.1,75.2c-.3,1-.2,1.9.2,2.4s1.1.8,2.2.8h2.9c1,0,1.7.6,1.7,1.7s-.6,1.7-1.7,1.7h-16.6c-1,0-1.7-.6-1.7-1.7s.6-1.7,1.7-1.7h2.9c2.8,0,4.5-1.3,5.3-4.1l52.5-172.2,3.4-10.6v-.2c0-.4.1-.7.4-1l.2-.2h.2s0,0,.1-.1l1-1v1.1h.8v.6h0s0,0,0,.1l.2.2v.2l55.7,183.1c1,2.8,2.8,4.1,5.6,4.1h2.9c1,0,1.7.6,1.7,1.7s-.6,1.7-1.7,1.7h-23.1,0ZM194.1,122.4c7.7,0,14.9,1.9,21.6,5.5,5.6,3.1,10.3,7.1,14.1,11.9l-30.4-99.8-26.7,87.8c6.7-3.7,13.8-5.5,21.4-5.5h0Z"/>
  <path d="M268.5,211.2c.7,0,1.1.4,1.1,1.1s-.4,1.1-1.1,1.1h-23.2c-.7,0-1.1-.4-1.1-1.1s.4-1.1,1.1-1.1h2.9c1.1,0,1.9-.4,2.4-1.1.7-.7.9-1.7.5-2.9l-16-52c-2.8-9.1-8.1-16.3-15.6-21.9-7.6-5.5-16-8.3-25.5-8.3s-16.3,2.2-23.2,6.7l-23.2,75.5c-.4,1.3-.2,2.2.2,2.9.5.7,1.4,1.1,2.7,1.1h2.9c.7,0,1.1.4,1.1,1.1s-.4,1.1-1.1,1.1h-16.6c-.7,0-1.1-.4-1.1-1.1s.4-1.1,1.1-1.1h2.9c3,0,5-1.5,5.9-4.6l52.5-172.2,3.5-10.7v-.3c0-.2,0-.4.2-.5.2,0,.4-.1.5-.3h0c0,.2,0,.2.2.2h.5c0,.2,0,.4.2.5q0,.1,0,0l55.7,183.1c1.1,3,3.1,4.6,6.1,4.6h2.9c0,.1,0,.1,0,.1ZM194.1,123c7.6,0,14.8,1.8,21.3,5.5,6.6,3.7,11.9,8.5,16,14.5l-32-105.1-27.7,91.2c7-4.1,14.4-6.1,22.4-6.1h0Z"/>
  <path d="M289,213.9c-1,0-1.7-.6-1.7-1.7s.6-1.7,1.7-1.7h2.9c2.5,0,3.7-1.1,3.7-3.7V32.3c0-2.5-1.1-3.7-3.7-3.7h-2.9c-1,0-1.7-.6-1.7-1.7s.1-1.4,1.7-1.4h22.9c.8,0,1.4.5,1.4,1.4,0,1.6-1.1,1.7-1.4,1.7h-3.2c-2.5,0-3.7,1.1-3.7,3.7v178.3h36.7c5,0,10.2-1.3,15.4-3.7,5.2-2.5,10-5.8,14.2-9.9,4.3-4.1,7.6-8.8,9.9-13.8.2-.7.8-.8,1.1-.8s.5,0,.8.2c.5.1.8.4,1,.8.1.2.1.7-.2,1.1l-12.4,28.1v.4s-.3.2-.5.4c-.3.3-.6.4-1,.4h-81.1c0,0,0,0,0,0Z"/>
  <path d="M382.9,183.2c.7.2.9.5.5,1.1l-12.5,28.3v.3s-.1,0-.3.2-.4.2-.5.2h-81.1c-.7,0-1.1-.4-1.1-1.1s.4-1.1,1.1-1.1h2.9c2.8,0,4.3-1.4,4.3-4.3V32.3c0-2.8-1.4-4.3-4.3-4.3h-2.9c-.7,0-1.1-.4-1.1-1.1s.4-.8,1.1-.8h22.9c.5,0,.8.2.8.8s-.2,1.1-.8,1.1h-3.2c-2.8,0-4.3,1.4-4.3,4.3v178.9h37.3c5.2,0,10.4-1.3,15.6-3.7,5.2-2.5,10-5.8,14.4-10,4.3-4.2,7.7-8.8,10-14,.3-.5.7-.6,1.1-.2h0Z"/>
  <path d="M780.1,213.9c-.6,0-1-.3-1.3-.8l-116.7-179.9c-.2-.3-.5-.6-.8-.9v174.7c0,2.5,1.3,3.7,3.9,3.7h2.9c1,0,1.7.6,1.7,1.7s-.6,1.7-1.7,1.7h-16.5c-1,0-1.7-.6-1.7-1.7s.6-1.7,1.7-1.7h2.9c2.5,0,3.7-1.1,3.7-3.7V29.7c-1.4-.7-2.6-1.1-3.7-1.1h-2.9c-1,0-1.7-.6-1.7-1.7s.1-1.4,1.7-1.4h15.7c.5,0,1,.1,1.2.4h0c0,0,112.8,173.8,112.8,173.8V32.3c0-2.5-1.1-3.7-3.7-3.7h-2.9c-1,0-1.7-.6-1.7-1.7s.1-1.4,1.7-1.4h16.5c1.6,0,1.7,1.1,1.7,1.4,0,1-.6,1.7-1.7,1.7h-2.9c-2.5,0-3.8,1.2-3.9,3.7v179.9c0,1.6-1.1,1.7-1.4,1.7h-2.9Z"/>
  <path d="M791.4,26.2c.7,0,1.1.2,1.1.8s-.4,1.1-1.1,1.1h-2.9c-2.8,0-4.3,1.4-4.5,4.3v179.9c0,.7-.2,1.1-.8,1.1h-2.9c-.4,0-.6-.2-.8-.5l-116.8-179.9c-.5-.7-1.1-1.3-1.9-1.9v176c0,2.8,1.5,4.3,4.5,4.3h2.9c.7,0,1.1.4,1.1,1.1s-.4,1.1-1.1,1.1h-16.5c-.7,0-1.1-.4-1.1-1.1s.4-1.1,1.1-1.1h2.9c2.8,0,4.3-1.4,4.3-4.3V29.4c-1.6-.9-3-1.3-4.3-1.3h-2.9c-.7,0-1.1-.4-1.1-1.1s.4-.8,1.1-.8h15.7c.4,0,.6,0,.8.2l113.8,175.4V32.3c0-2.8-1.4-4.3-4.3-4.3h-2.9c-.7,0-1.1-.4-1.1-1.1s.4-.8,1.1-.8h16.6,0Z"/>
  <path d="M514.8,214c-3.4,0-6.7-.3-10.1-1-6.6-.6-12.5-1.9-17.4-3.7-6.4-1.7-12-4-16.5-6.7-7.9-3.7-14-7.9-18.1-12.4-3.9-4.3-8-10.8-11.9-18.8-2-1.6-4.1-3.2-6.1-4.9-15.1-12.4-27.9-24.9-37-36.3-10.3-12.8-15.3-23.4-14.9-31.3.2-4.2,2-7.6,5.1-10.2-1.3-5-1.4-9.2-.6-12.9.9-4.1,3.2-7.2,6.7-9.1-.4-5.2.2-9.5,1.6-12.8,1.6-3.8,4.4-6.5,8.2-7.8.5-5,1.8-9.2,3.8-12.4,2.3-3.5,5.5-5.6,9.4-6.2,1.4-4.9,3.4-8.8,5.9-11.5,2.8-3,6.2-4.5,10.1-4.5s11.6,2.8,18.7,8.2c9.6,7.3,26.6,16.8,42.6,23.6-8.9-26.7-8.3-36.1,2.3-39.8C503.8,1.2,511.1,0,518.3,0s7.5.3,11,1c6.6.2,13.2,1.5,19.3,3.8,6.4,1.4,12.6,3.8,18.3,7,6.1,2.5,11.7,5.8,16.8,10.1,15.1,9.4,25.7,25,31.6,46.2,1.1,4,2,8.2,2.8,12.4,5,11.7,7.4,23.5,7,35.1-.1,3.2-.4,6.4-.9,9.6-.5,6.2-1.8,12.4-3.8,18.2-1.6,5.9-3.9,11.7-7,17.2-1.3,2.8-2.8,5.5-4.4,8.2-1.7,2.8-3.5,5.3-5.5,7.7-1.7,2.5-3.7,5-5.8,7.3-10,11.2-23.1,19.3-38.9,24.1-8.7,2.7-17.7,4.3-26.9,4.9-3.2.5-6,.7-8.7.7h-1.1c-2.2.2-4.5.4-6.9.4h-.7,0ZM515.3,210.9h1.2c3.6,0,7.3-.2,11.3-.5,1.2-.1,2.5-.4,3.7-.5,4.6-.7,9-1.6,13.2-2.8.5-.2,1.1-.4,1.7-.6.6-.2,1.3-.4,1.9-.6,4.3-1.5,8.5-3.2,12.5-5h.1c1-.6,2.1-1.1,3.2-1.7,18.7-10.3,34.7-24.9,45.1-41.1,1.6-2.5,3-4.9,4.3-7.4,1.4-5,2.5-10.3,3.2-15.6,1.2-9.2,1.7-18.6,1.6-28.1-.5-5.4-1.4-11.5-2.5-17.3-1.8-6.2-3.5-11.5-5.5-16.7-2.4-5-5.2-10.3-8.3-15.5-8.2-11.4-21.7-27.5-38.8-39.5-5.5,2.6-10.7,11.6-18.5,32-1,2.6-3.2,4.5-6.5,5.4-1.7.5-3.7.7-5.9.7-3.3,0-7.2-.5-11.6-1.5-2.3.2-4.6.4-6.7.4s-2.3,0-3.5-.1c-3.5,1-6.7,1.7-9.9,2-3.2,1.6-6.4,2.8-9.4,3.7-15.4,11.7-51.5,20.8-72.6,23.7,2.8,20.8,7.9,42.9,14.5,62.2,2.6,5.3,4.9,10,7.3,14.1,2.8,3.8,5.8,7.8,9.5,12.6,4.3,4.1,8,7.6,11.6,10.8,21.1,14.6,40.3,24.1,53.9,27h0ZM498.2,208.9c2.5.5,5.1.8,7.7,1.2-9-3.2-19.6-8.4-31-15.2,8.8,6.7,16.8,11.5,23.4,14.1h0ZM483.7,205.4c2,.6,4,1.2,6.1,1.7-8.4-4.6-18.3-11.8-28.9-20.9,8.5,9,16.2,15.6,22.8,19.2ZM451.9,179.7c5.9,8.6,11.5,14.9,16.6,18.9,1.1.9,2.2,1.6,3.3,2.2,1.2.5,2.5,1.1,4,1.7-6.7-5.1-14.3-12.4-22.1-21.6-.6-.4-1.2-.8-1.8-1.3h0ZM444.5,174.2c3.2,6.1,6.5,11,9.7,14.6,2.1,2.3,4.7,4.5,7.8,6.6-4.7-4.8-9.8-11.4-14.8-19.2-.9-.7-1.8-1.3-2.7-2h0ZM442.4,170c.6.5,1.2,1,1.8,1.4-.3-.5-1.5-2.5-1.5-2.5-.5-.5-1-1-1.5-1.5.4.9.8,1.7,1.2,2.6ZM388.5,91c-2.2,2-3.5,4.9-3.6,8.1-.7,14.7,20.4,41.3,54.1,68.3-.7-1.4-1.3-2.9-1.8-4.1-3.9-4.1-7.4-8-10.6-11.8-12.7-14.8-23.2-29.4-30.1-42.1-3.7-6.7-6.4-12.9-8-18.3h0ZM390.2,89.6c4.8,17.3,21.4,42.6,44.8,68.2-.3-.8-.6-1.6-.9-2.3v-.3c-4.8-6.8-9.1-13.5-12.9-20-10-16.9-17.7-33-22.3-46.7-.2-.7-.4-1.4-.7-2.1-3.4.8-6.1,1.8-8,3.2h0ZM400.1,86.1c5.6,17.6,16.8,39.8,31,61.4,0,0,0,0,0-.1-4.6-9.5-8.8-19.3-12.5-29.2-4-10.6-7.5-21.6-10.4-32.9h-.8c-2.3.1-4.8.4-7.3.8h0ZM410.2,85.2c3.7,14.7,9.4,31.1,16.1,47.1-2.9-10.2-5.3-20.7-7.3-31.2-1.1-5.6-2-11.2-2.7-16.5-2.1.2-4.1.5-6.1.6h0ZM394.1,69.2c-2.5,1.6-4.4,4.3-4.9,7.3-.7,3-.5,6.8.5,11.2,2.2-1.3,4.8-2.3,7.9-3-1.8-5.9-2.9-11-3.4-15.4h0ZM396,68.1c.4,4.6,1.6,10,3.4,16.1,2.8-.5,5.4-.7,7.9-.8h.3c-1.3-5.6-2.3-10.5-2.9-14.9,0-.2,0-.5-.1-.8,0-.5-.1-.9-.2-1.3-3.3.2-6.1.7-8.4,1.7ZM406.4,66.3c.8,5.6,1.9,11.3,3.2,16.9,2-.1,4.1-.4,6.4-.6-.7-5.9-1.2-11.1-1.6-15.7h-.7c-2.5-.4-5-.6-7.4-.6h0ZM416.6,67.1c.3,4.6.8,9.6,1.5,15.2,11.6-1.5,25.8-4.7,38.2-8.5,11.8-3.6,21.6-7.5,28.4-11.5-16.4,4-37,5.5-51.6,5.5h-1.5c-5,0-10.1-.2-15-.7h0ZM613.7,71.4c.3.5.6,1.1.9,1.6-.4-1.5-.7-2.9-1.1-4.3-3.8-13.8-9.7-25.1-17.5-33.9,3.8,5,7.2,10.8,10.2,17.1,2.9,6.3,5.5,12.9,7.5,19.4h0ZM403.6,48.6c-2.8,1.2-5,3.4-6.2,6.3-1.3,2.9-1.7,6.5-1.5,11.2,2.3-.9,5-1.4,8.3-1.6-.7-5.9-.9-11.2-.6-15.8h0ZM416.5,65.1c4.6.5,10.2.7,16.3.7,10.1,0,21.2-.7,31.2-1.9,10.2-1.2,19-2.9,26.1-5.1.5-.4,1-.7,1.4-1.2-2.6.1-5,.2-7.4.2-22.9,0-47.9-4.1-60.8-8.1-2.6-.8-4.9-1.4-7.2-1.8-.2,6.2-.1,11.8.2,17.2h0ZM406.5,64.3c2.5,0,5,.2,7.6.5h.4c-.4-5.7-.4-10.7-.3-15.1,0-.5,0-.9,0-1.3v-.8c-1.1-.1-2.5-.2-3.8-.2s-3.3.2-4.8.5c-.4,4.7-.2,10.2.6,16.4.2-.1.2-.1.4-.1h0ZM609,63.8c-1.4-3.7-2.9-7.4-4.6-11-5.9-12.4-13.3-22.2-21.7-29.2-.2-.1-.5-.3-.7-.4,4.6,4.4,8.7,9.2,12.3,14.4,5.8,8.2,10.7,16.9,14.6,26.1,0,.1,0,.2.1.2h0ZM416.4,45.8c2.6.4,5.2,1.1,7.7,1.9,12,3.7,31.8,6.8,49.2,7.8,3.4.2,6.8.3,10.3.3s6.7-.1,10.1-.3c.4-.4.7-.8,1-1.3.2-.4.5-.7.7-1.1-22.5-3.8-47.4-12.5-59.5-18.7-6.2-3.2-11.6-4.9-16-4.9s-.8,0-1.2,0c-1.2,4.5-1.9,9.9-2.3,16.3h0ZM497.5,53.4c-.3.7-.7,1.3-1.1,1.9,1.1-.1,2.3-.2,3.5-.4.5-.2,1.1-.5,1.6-.9-1.5-.2-2.8-.4-4.1-.7h0ZM525.7,53.4c2.5.4,4.6.5,6.5.5s3.8-.2,5.3-.6c2.6-.8,4.3-2.2,5.2-4.2,7.8-20,13-29.1,18.5-32.5-3.7-2.5-7.6-4.7-11.6-6.7-7.2,1-11.3,10.2-16.5,36.2-.5,2.8-2.3,4.9-5.5,6.4-.7.3-1.4.6-2.1.8h0ZM506.7,52.6c1.2.1,2.4.2,3.5.2.7-.2,1.3-.4,1.8-.7-1.3-.4-2.6-.8-3.9-1.3-.5.6-1,1.2-1.4,1.7h0ZM517.4,51.6c1.1.3,2.3.6,3.4.8,2.1-.2,4.2-.8,6.3-1.7,2.5-1.1,3.9-2.8,4.3-5,4.8-24.6,8.9-34.5,15.6-37.2-2.4-1.1-5-2.2-8-3.1-1.2-.1-2.3-.1-3.4-.1h-.2c-10.1,0-13.2,8.8-13.8,39.1-.2,2.8-1.6,5.2-4.3,7.2h0ZM498.2,51.5c1.8.3,3.7.5,5.9.8.4-.3.8-.7,1.2-1.1.3-.3.6-.6.9-1-2.9-1-5.7-2.1-8.3-3.1.5,1.3.6,2.8.3,4.4h0ZM419.7,27.4c4.7,0,10.5,1.7,17.2,5.1,10.9,5.6,29.9,12.2,47.2,16.2,3.8.9,7.8,1.7,12.1,2.5.2-1.1.2-2.3-.2-3.4l-.2-.5c-.1-.4-.3-.7-.4-1.1-16.6-7-34.5-16.8-44.7-24.5-6.8-5.2-12.7-7.8-17.5-7.8s-6.3,1.3-8.7,3.8c-2.2,2.3-4,5.6-5.3,9.9.2,0,.3-.1.5-.1h0ZM509.1,49.1c1.9.7,3.8,1.2,5.6,1.8.5-.3,1-.6,1.4-.9,2.2-1.6,3.4-3.5,3.4-5.6.6-28.7,3.5-39,12.6-40.8-1.1-.2-2-.4-3-.6-.8,0-1.5,0-2.3,0-3.5,0-7.1.3-10.4.8-10.1,1.7-11.7,10.9-7,40.9.2,1.6,0,3.1-.5,4.4h0ZM572,18.2c2.9,2.3,5.6,4.7,8,7.1,6.7,6.6,13.2,14.5,19.2,23.5-2-3.5-4.3-6.9-6.6-10.2-5.5-7.8-11.7-14.3-18.1-19.4l-.5-.2c-.7-.4-1.4-.7-2-.9h0ZM497,44.5c3.5,1.5,6.9,2.8,10.1,3.9.5-1.1.6-2.2.4-3.4-4.7-30-3.2-40.2,6.9-42.8-5.8.4-11.5,1.5-17,3.4-9.3,3.3-9.4,12.4-.5,38.9ZM416.5,29.9c-3,.7-5.4,2.5-7.1,5.2-1.7,2.6-2.8,6.2-3.4,10.7,1.4-.3,2.9-.4,4.6-.4s2.6,0,3.9.2c.3-6.1,1-11.3,2.1-15.7h0ZM565.7,17.2c7.2,5.1,14.1,11.2,20.8,18.1-2.5-2.9-5.2-5.8-7.9-8.6-3.5-3.5-7.4-6.8-11.3-9.7h-.4c-.4,0-.7,0-1.1.1h0ZM554.9,10.3c2.8,1.6,5.7,3.3,8.7,5.3.4-.1.8-.2,1.1-.4-2.5-1.7-5-3.2-7.5-4.4-.7-.2-1.6-.4-2.3-.5ZM568,15.1c.2,0,.5,0,.8.1-.8-.5-1.7-1.1-2.6-1.6-.2-.1-.4-.2-.7-.3.8.5,1.7,1.1,2.5,1.7h0ZM547.3,6.5c1,.4,1.9.8,2.9,1.3.3,0,.5,0,.8,0-.9-.4-1.9-.7-2.9-1.1-.3,0-.5,0-.8-.1Z"/>
</svg>