<?xml version="1.0" encoding="UTF-8"?>
<svg id="Camada_1" data-name="Camada 1" xmlns="http://www.w3.org/2000/svg" viewBox="0 0 1280 426.03">
  <g>
    <path d="M306.31,308.31c51.52-.17,90.35-44.02,91.59-93.03,1.25-49.57-36.11-93.07-86.78-97.36-20.66-1.75-39.95.07-61.72-.61l-.14,26.52-45.58,45.57-.16-117.83,106.12.43c75.77.31,133.49,66.28,133.94,140.25.45,73.91-56.71,141.18-132.44,141.59l-107.57.59.06-45.79,102.69-.35Z"/>
    <polygon points="282.34 160.01 347.05 160.17 203.47 303.97 59.91 160.25 124.38 159.78 203.53 238.95 282.34 160.01"/>
  </g>
  <g>
    <g>
      <path d="M622.45,112.89l-52.12,116.94h-8.52l-52.12-116.94h9.36l47.27,105.91,47.27-105.91h8.85Z"/>
      <path d="M640.86,112.89h8.52v116.94h-8.52v-116.94Z"/>
      <path d="M779.81,112.89v116.94h-7.01l-79.69-101.57v101.57h-8.52v-116.94h7.18l79.52,101.57v-101.57h8.52Z"/>
      <path d="M815.3,112.89h8.52v116.94h-8.52v-116.94Z"/>
      <path d="M850.13,171.36c0-34.08,25.89-59.3,60.64-59.3,16.54,0,31.41,5.35,41.6,16.2l-5.35,5.51c-10.02-9.86-22.22-13.86-35.92-13.86-29.9,0-52.45,22.05-52.45,51.45s22.55,51.45,52.45,51.45c13.7,0,25.89-4.18,35.92-14.03l5.35,5.51c-10.19,10.86-25.06,16.37-41.6,16.37-34.75,0-60.64-25.23-60.64-59.3Z"/>
      <path d="M975.64,112.89h8.52v116.94h-8.52v-116.94Z"/>
      <path d="M1018.64,180.21v-67.32h8.52v66.99c0,29.23,14.03,42.93,38.42,42.93s38.26-13.7,38.26-42.93v-66.99h8.52v67.32c0,33.41-17.87,50.45-46.94,50.45s-46.78-17.04-46.78-50.45Z"/>
      <path d="M1135.39,214.79l3.84-6.35c8.02,8.35,22.89,14.7,38.59,14.7,23.38,0,33.74-10.19,33.74-22.89,0-35.08-73-14.03-73-57.13,0-16.54,12.7-31.07,41.43-31.07,12.86,0,26.23,4.01,35.25,10.52l-3.18,6.85c-9.69-6.68-21.55-9.86-32.07-9.86-22.72,0-32.91,10.52-32.91,23.39,0,35.08,73,14.37,73,56.8,0,16.54-13.2,30.9-42.1,30.9-17.37,0-34.08-6.52-42.6-15.87Z"/>
    </g>
    <g>
      <path d="M535.2,262.95h20.05c16.07,0,26.93,10.57,26.93,25.33s-10.86,25.33-26.93,25.33h-20.05v-50.66ZM554.96,310.28c14.33,0,23.52-9.12,23.52-22s-9.19-22-23.52-22h-16.07v44.01h16.07Z"/>
      <path d="M707.33,310.28v3.33h-34.96v-50.66h33.87v3.33h-30.18v19.98h27v3.26h-27v20.77h31.27Z"/>
      <path d="M797.53,307.1l1.66-2.75c3.48,3.62,9.92,6.37,16.72,6.37,10.13,0,14.62-4.41,14.62-9.92,0-15.2-31.63-6.08-31.63-24.75,0-7.17,5.5-13.46,17.95-13.46,5.57,0,11.36,1.74,15.27,4.56l-1.37,2.97c-4.2-2.9-9.34-4.27-13.9-4.27-9.84,0-14.26,4.56-14.26,10.13,0,15.2,31.63,6.22,31.63,24.61,0,7.17-5.72,13.39-18.24,13.39-7.53,0-14.76-2.82-18.46-6.88Z"/>
      <path d="M924.43,262.95h3.69v50.66h-3.69v-50.66Z"/>
      <path d="M1059.36,288.5h3.55v18.96c-4.56,4.34-11.15,6.51-18.1,6.51-15.27,0-26.49-10.93-26.49-25.69s11.22-25.69,26.56-25.69c7.31,0,13.75,2.32,18.24,6.95l-2.32,2.46c-4.41-4.34-9.7-6.01-15.85-6.01-13.17,0-22.94,9.55-22.94,22.29s9.77,22.29,22.94,22.29c5.36,0,10.28-1.3,14.4-4.63v-17.44Z"/>
      <path d="M1194.58,262.95v50.66h-3.04l-34.52-44.01v44.01h-3.69v-50.66h3.11l34.45,44.01v-44.01h3.69Z"/>
    </g>
  </g>
</svg>