<?xml version="1.0" encoding="UTF-8"?>
<svg id="Camada_1" data-name="Camada 1" xmlns="http://www.w3.org/2000/svg" viewBox="0 0 383.66 282.87">
  <path d="M246.4,236.73c51.52-.17,90.35-44.02,91.59-93.03,1.25-49.57-36.11-93.07-86.78-97.36-20.66-1.75-39.95.07-61.72-.61l-.14,26.52-45.58,45.57-.16-117.83,106.12.43c75.77.31,133.49,66.28,133.94,140.25.45,73.91-56.71,141.18-132.44,141.59l-107.57.59.06-45.79,102.69-.35Z"/>
  <polygon points="222.42 88.42 287.13 88.58 143.56 232.39 0 88.67 64.46 88.2 143.61 167.37 222.42 88.42"/>
</svg>